<svg id="Layer_1" data-name="Layer 1" xmlns="http://www.w3.org/2000/svg" viewBox="0 0 192 192"><defs><style>.cls-1{fill:#fff;}</style></defs><path class="cls-1" d="M120,144a72,72,0,1,1,72-72A72.1,72.1,0,0,1,120,144ZM120,8a64,64,0,1,0,64,64A64.1,64.1,0,0,0,120,8Z"/><path class="cls-1" d="M52,144a3.9,3.9,0,0,1-2.8-1.2,3.9,3.9,0,0,1,0-5.6l20-20a4,4,0,0,1,5.6,5.6l-20,20A3.9,3.9,0,0,1,52,144Z"/><path class="cls-1" d="M20,192a3.9,3.9,0,0,1-2.8-1.2l-16-16a3.9,3.9,0,0,1,0-5.6l40-40a3.9,3.9,0,0,1,5.6,0l16,16a3.9,3.9,0,0,1,0,5.6l-16,16a4,4,0,0,1-5.6-5.6L54.3,148,44,137.7,9.7,172,20,182.3l9.2-9.1a4,4,0,1,1,5.6,5.6l-12,12A3.9,3.9,0,0,1,20,192Z"/><path class="cls-1" d="M120,116h-.7c-27.1-4.5-31.1-26.3-31.2-27.2a3.7,3.7,0,0,1,1-3.5A4.2,4.2,0,0,1,92.5,84c.6.1,13.8,1.8,23.3,11.8a4.1,4.1,0,0,1-.2,5.7,4,4,0,0,1-5.6-.2,32.4,32.4,0,0,0-11.5-7.4c3,5.2,9.3,12,22.2,14.2a3.9,3.9,0,0,1,3.2,4.6A4,4,0,0,1,120,116Z"/><path class="cls-1" d="M120,128a4,4,0,0,1-4-4V112a4,4,0,0,1,8,0v12A4,4,0,0,1,120,128Z"/><path class="cls-1" d="M120,116a3.7,3.7,0,0,1-3-1.4c-16-18.6-7.1-40.2-.1-49.1a4,4,0,0,1,6.2,0c7,8.9,15.9,30.5-.1,49.1A3.7,3.7,0,0,1,120,116Zm0-40.4c-3.3,6.4-7.1,18,0,29.6C127.1,93.6,123.3,82,120,75.6Z"/><path class="cls-1" d="M120,116a4,4,0,0,1-3.9-3.3,3.9,3.9,0,0,1,3.2-4.6c12.9-2.2,19.1-9,22.2-14.2a32.4,32.4,0,0,0-11.5,7.4,4,4,0,0,1-5.6.2,4.1,4.1,0,0,1-.2-5.7c9.5-10,22.7-11.7,23.3-11.8a4.2,4.2,0,0,1,3.4,1.2,3.7,3.7,0,0,1,1,3.5c-.1.9-4.1,22.7-31.2,27.2Z"/><path class="cls-1" d="M120,116h-.6l-28-4a4,4,0,1,1,1.2-8l27.4,4,27.4-4a4,4,0,0,1,1.2,8l-28,4Z"/><path class="cls-1" d="M132,120l-1.3-.2L120,116.2l-10.7,3.6a4,4,0,1,1-2.6-7.6l12-4a3.9,3.9,0,0,1,2.6,0l12,4a4,4,0,0,1,2.5,5.1A4.1,4.1,0,0,1,132,120Z"/></svg>