<svg id="Layer_1" data-name="Layer 1" xmlns="http://www.w3.org/2000/svg" viewBox="0 0 192 192"><defs><style>.cls-1{fill:#fff;}</style></defs><path class="cls-1" d="M163.4,192H27.4a4.1,4.1,0,0,1-2.9-1.3,4.2,4.2,0,0,1-1.1-2.9l8-144a4,4,0,0,1,4-3.8h120a4,4,0,0,1,4,3.8l4,72a4,4,0,0,1-8,.4L151.6,48H39.2L31.6,184H159.2l-2.9-51.8a4,4,0,1,1,8-.4l3.1,56a3.4,3.4,0,0,1-1.1,2.9A3.9,3.9,0,0,1,163.4,192Z"/><path class="cls-1" d="M131.8,80a4,4,0,0,1-4-4V48c0-22.1-14.6-40-32.5-40S62.7,25.9,62.7,48V76a4,4,0,0,1-8,0V48c0-26.5,18.2-48,40.6-48s40.5,21.5,40.5,48V76A4,4,0,0,1,131.8,80Z"/><path class="cls-1" d="M95.4,144a3.9,3.9,0,0,1-3.5-2.1C73,106.6,91.2,75.3,92,74a3.8,3.8,0,0,1,3.4-2,4.1,4.1,0,0,1,3.5,2c.7,1.3,18.9,32.6,0,67.9A3.8,3.8,0,0,1,95.4,144Zm0-58.3a63.9,63.9,0,0,0,0,44.7C102.4,111.8,98.7,95,95.4,85.7Z"/><path class="cls-1" d="M95.4,144l-1.1-.2a57.6,57.6,0,0,1-11-3h-.2c-23.7-9.6-27.5-31.1-27.6-32.1a4.2,4.2,0,0,1,1-3.4,4.4,4.4,0,0,1,3.4-1.2c.9.1,22.1,3,33.6,20.9a4,4,0,0,1-1.2,5.5,4,4,0,0,1-5.6-1.2c-5.8-9.1-15.1-13.5-21.3-15.6a36.8,36.8,0,0,0,20.8,19.7h.1A51.3,51.3,0,0,0,96,136l.6.2a4,4,0,0,1-1.2,7.8Zm0-8Z"/><path class="cls-1" d="M75.4,160a4.1,4.1,0,0,1-4-3.5A4.2,4.2,0,0,1,75,152c14.8-1.7,16.4-12.1,16.5-12.5a4,4,0,0,1,7.9,1c-.7,5.8-6.5,17.5-23.5,19.5Z"/><path class="cls-1" d="M73.9,148.3A39.2,39.2,0,0,1,48.8,139a4,4,0,0,1,1.2-6.7,62.3,62.3,0,0,1,16.3-3.8,65.2,65.2,0,0,1,9.9-.1,3.9,3.9,0,0,1,3.7,4.2,4,4,0,0,1-4.2,3.8,50.4,50.4,0,0,0-8.7.1c-2,.2-4.1.5-6.1.9a31.1,31.1,0,0,0,6.5,2.2,30.2,30.2,0,0,0,17.1-1.3h.4a47.5,47.5,0,0,0,6.2-2.3,3.3,3.3,0,0,1,1.7-.4,4,4,0,0,1,4,4,3.9,3.9,0,0,1-2.6,3.7,52.7,52.7,0,0,1-6.7,2.6H87A38.3,38.3,0,0,1,73.9,148.3Zm9.3-9.1Zm0,0Z"/><path class="cls-1" d="M117,148.3a38.4,38.4,0,0,1-13.2-2.4h-.4a51.9,51.9,0,0,1-6.9-2.6,4.1,4.1,0,0,1-2.5-3.7,4,4,0,0,1,4-4h.1a3.5,3.5,0,0,1,1.7.4,42.5,42.5,0,0,0,6.2,2.3.1.1,0,0,1,.1.1h.2a30.3,30.3,0,0,0,17.1,1.3,31.1,31.1,0,0,0,6.5-2.2q-3-.6-6-.9a51.6,51.6,0,0,0-8.8-.1,4,4,0,1,1-.4-8,65.3,65.3,0,0,1,9.9.1,61.6,61.6,0,0,1,16.2,3.8A3.9,3.9,0,0,1,142,139a37.8,37.8,0,0,1-17,8.4A38.5,38.5,0,0,1,117,148.3Zm-9.4-9.1Zm0,0Z"/><path class="cls-1" d="M95.4,168a4,4,0,0,1-4-4V140a4,4,0,0,1,8,0v24A4,4,0,0,1,95.4,168Z"/><path class="cls-1" d="M95.4,144a4,4,0,0,1-1.2-7.8l.7-.2a50.3,50.3,0,0,0,9.6-2.6h.2a36.9,36.9,0,0,0,20.7-19.7c-6.2,2.1-15.4,6.5-21.3,15.6a4,4,0,0,1-6.7-4.3C108.8,107,130,104.1,130.9,104a4.2,4.2,0,0,1,3.4,1.2,4,4,0,0,1,1.1,3.4c-.2,1-3.9,22.5-27.6,32.1h-.3a57.6,57.6,0,0,1-11,3Zm0-8Z"/><path class="cls-1" d="M115.4,160H115c-11-1.3-16.8-6.4-19.7-10.5a22.3,22.3,0,0,1-3.9-9,4.2,4.2,0,0,1,3.5-4.5,4.1,4.1,0,0,1,4.5,3.5c0,.4,1.7,10.8,16.5,12.5a4.1,4.1,0,0,1,3.5,4.5A4,4,0,0,1,115.4,160Z"/></svg>