<svg id="Layer_1" data-name="Layer 1" xmlns="http://www.w3.org/2000/svg" viewBox="0 0 192 192"><defs><style>.cls-1{fill:#fff;}</style></defs><path class="cls-1" d="M172,192H20a4,4,0,0,1-4-4V60a4,4,0,0,1,8,0V184H168V140a4,4,0,0,1,8,0v48A4,4,0,0,1,172,192Z"/><path class="cls-1" d="M172,128a4,4,0,0,1-4-4V60a4,4,0,0,1,8,0v64A4,4,0,0,1,172,128Z"/><path class="cls-1" d="M140,104H52a4,4,0,0,1-4-4V76a4,4,0,0,1,8,0V96h80V76a4,4,0,0,1,8,0v24A4,4,0,0,1,140,104Z"/><path class="cls-1" d="M188,64H4A4,4,0,0,1,.7,62.2a4,4,0,0,1-.4-3.8l24-56A4.2,4.2,0,0,1,28,0H164a4.2,4.2,0,0,1,3.7,2.4l24,56a4,4,0,0,1-.4,3.8A4,4,0,0,1,188,64ZM10.1,56H181.9L161.4,8H30.6Z"/><path class="cls-1" d="M44,64a2.2,2.2,0,0,1-1.1-.2,3.9,3.9,0,0,1-2.7-4.9l16-56A3.9,3.9,0,0,1,61.1.2a3.9,3.9,0,0,1,2.7,4.9l-16,56A3.9,3.9,0,0,1,44,64Z"/><path class="cls-1" d="M148,64a3.9,3.9,0,0,1-3.8-2.9l-16-56A3.9,3.9,0,0,1,130.9.2a3.9,3.9,0,0,1,4.9,2.7l16,56a3.9,3.9,0,0,1-2.7,4.9A2.2,2.2,0,0,1,148,64Z"/><path class="cls-1" d="M96,64a4,4,0,0,1-4-4V4a4,4,0,0,1,8,0V60A4,4,0,0,1,96,64Z"/><path class="cls-1" d="M96,176a4,4,0,0,1-4-4V160a4,4,0,0,1,8,0v12A4,4,0,0,1,96,176Z"/><path class="cls-1" d="M96,164a3.7,3.7,0,0,1-3-1.4c-16-18.6-7.1-40.2-.1-49.1a4,4,0,0,1,6.2,0c7,8.9,15.9,30.5-.1,49.1A3.7,3.7,0,0,1,96,164Zm0-40.4c-3.3,6.4-7.1,18,0,29.6C103.1,141.6,99.3,130,96,123.6Z"/><path class="cls-1" d="M96,164h-.7c-27.1-4.5-31.1-26.3-31.2-27.2a3.7,3.7,0,0,1,1-3.5,4.2,4.2,0,0,1,3.4-1.2c.6.1,13.8,1.8,23.3,11.8a4.1,4.1,0,0,1-.2,5.7,4,4,0,0,1-5.6-.2,32.4,32.4,0,0,0-11.5-7.4c3,5.2,9.3,12,22.2,14.2a3.9,3.9,0,0,1,3.2,4.6A4,4,0,0,1,96,164Z"/><path class="cls-1" d="M96,164a4,4,0,0,1-3.9-3.3,3.9,3.9,0,0,1,3.2-4.6c12.9-2.2,19.1-9,22.2-14.2a32.4,32.4,0,0,0-11.5,7.4,4,4,0,0,1-5.6.2,4.1,4.1,0,0,1-.2-5.7c9.5-10,22.7-11.7,23.3-11.8a4.2,4.2,0,0,1,3.4,1.2,3.7,3.7,0,0,1,1,3.5c-.1.9-4.1,22.7-31.2,27.2Z"/><path class="cls-1" d="M96,164h-.6l-28-4a4,4,0,1,1,1.2-8L96,156l27.4-4a4,4,0,0,1,1.2,8l-28,4Z"/><path class="cls-1" d="M108,168l-1.3-.2L96,164.2l-10.7,3.6a4,4,0,1,1-2.6-7.6l12-4a3.9,3.9,0,0,1,2.6,0l12,4a4,4,0,0,1,2.5,5.1A4.1,4.1,0,0,1,108,168Z"/></svg>