<svg id="Layer_1" data-name="Layer 1" xmlns="http://www.w3.org/2000/svg" viewBox="0 0 192 192"><defs><style>.cls-1{fill:#fff;}</style></defs><path class="cls-1" d="M96,172a4,4,0,0,1-3-6.6,28.7,28.7,0,0,0,6.2-11.8c2.2-8.7-.7-16.8-3.2-21.9-2.5,5.1-5.4,13.2-3.2,21.9a4,4,0,0,1-3,4.8,3.9,3.9,0,0,1-4.8-2.9c-4.5-18,7.3-33.3,7.9-34a4,4,0,0,1,6.2,0c.6.7,12.4,16,7.9,34a35.8,35.8,0,0,1-8,15.1A4.1,4.1,0,0,1,96,172Z"/><path class="cls-1" d="M96,172h-.7c-27.1-4.5-31.1-26.3-31.2-27.2a3.7,3.7,0,0,1,1-3.5,4.2,4.2,0,0,1,3.4-1.2c.6.1,13.8,1.8,23.3,11.8a4,4,0,0,1,1,1.8A28.7,28.7,0,0,0,99,165.4a4.1,4.1,0,0,1,.5,4.6A4.2,4.2,0,0,1,96,172ZM74.5,149.9a28.2,28.2,0,0,0,12.4,11.2,40.4,40.4,0,0,1-1.6-4.5A31.9,31.9,0,0,0,74.5,149.9Z"/><path class="cls-1" d="M96,184a4,4,0,0,1-4-4V168a4,4,0,0,1,8,0v12A4,4,0,0,1,96,184Z"/><path class="cls-1" d="M96,172a4,4,0,0,1-3.9-3.3,3.9,3.9,0,0,1,3.2-4.6c12.9-2.2,19.1-9,22.2-14.2a32.4,32.4,0,0,0-11.5,7.4,4,4,0,0,1-5.6.2,4.1,4.1,0,0,1-.2-5.7c9.5-10,22.7-11.7,23.3-11.8a4.2,4.2,0,0,1,3.4,1.2,3.7,3.7,0,0,1,1,3.5c-.1.9-4.1,22.7-31.2,27.2Z"/><path class="cls-1" d="M96,172h-.6l-28-4a4,4,0,1,1,1.2-8L96,164l27.4-4a4,4,0,0,1,1.2,8l-28,4Z"/><path class="cls-1" d="M108,176l-1.3-.2L96,172.2l-10.7,3.6a4,4,0,1,1-2.6-7.6l12-4a3.9,3.9,0,0,1,2.6,0l12,4a4,4,0,0,1,2.5,5.1A4.1,4.1,0,0,1,108,176Z"/><path class="cls-1" d="M155,120a4.2,4.2,0,0,1-3.2-1.6c-8.8-12-22.4-20.2-36.3-22h-.1a35.2,35.2,0,0,0-5.8-.4h-.3a4,4,0,0,1,0-8h.3a48.6,48.6,0,0,1,6.9.5c16.1,2,31.7,11.4,41.8,25.1a4,4,0,0,1-.9,5.6A4.1,4.1,0,0,1,155,120Z"/><path class="cls-1" d="M28,192a4,4,0,0,1-4-4V140c0-21.3,22-47.8,51.5-51.5a48.6,48.6,0,0,1,6.9-.5h.3a4,4,0,0,1,0,8h-.3a35.2,35.2,0,0,0-5.8.4h-.1C51.5,99.5,32,122.4,32,140v48A4,4,0,0,1,28,192Z"/><path class="cls-1" d="M140,192a4,4,0,0,1-4-4V164a4,4,0,0,1,8,0v24A4,4,0,0,1,140,192Z"/><path class="cls-1" d="M52,192a4,4,0,0,1-4-4V164a4,4,0,0,1,8,0v24A4,4,0,0,1,52,192Z"/><path class="cls-1" d="M52,176H28a4,4,0,0,1,0-8H52a4,4,0,0,1,0,8Z"/><path class="cls-1" d="M164,176H140a4,4,0,0,1,0-8h24a4,4,0,0,1,0,8Z"/><path class="cls-1" d="M96,112c-13.1,0-23.6-8.5-24-19.4a4.2,4.2,0,0,1,3.9-4.2A4,4,0,0,1,80,92.3c.2,6.5,7.4,11.7,16,11.7s15.8-5.2,16-11.7a4,4,0,0,1,4.1-3.9,4.2,4.2,0,0,1,3.9,4.2C119.6,103.5,109.1,112,96,112Z"/><path class="cls-1" d="M164,192a4,4,0,0,1-4-4V140a28.6,28.6,0,0,0-.9-7,4,4,0,0,1,2.8-4.9,4.1,4.1,0,0,1,4.9,2.9,35.4,35.4,0,0,1,1.2,9v48A4,4,0,0,1,164,192Z"/><path class="cls-1" d="M100,80H92A28.1,28.1,0,0,1,64,52V28A28.1,28.1,0,0,1,92,0h8a28.1,28.1,0,0,1,28,28V52A28.1,28.1,0,0,1,100,80ZM92,8A20.1,20.1,0,0,0,72,28V52A20.1,20.1,0,0,0,92,72h8a20.1,20.1,0,0,0,20-20V28A20.1,20.1,0,0,0,100,8Z"/><path class="cls-1" d="M82.7,96h-.9a4,4,0,0,1-3-4.8A45.7,45.7,0,0,0,80,83.7a85.4,85.4,0,0,0,.1-9A4.1,4.1,0,0,1,84,70.6a4,4,0,0,1,4.1,3.9c.1,3,.1,7.4-.1,9.8a57.2,57.2,0,0,1-1.4,8.6A3.9,3.9,0,0,1,82.7,96Z"/><path class="cls-1" d="M109.3,96a3.9,3.9,0,0,1-3.9-3.1,57.2,57.2,0,0,1-1.4-8.6c-.2-2.5-.2-6.8-.1-9.7a4,4,0,0,1,8,0h0a83.9,83.9,0,0,0,.1,8.9,45.7,45.7,0,0,0,1.2,7.4,4,4,0,0,1-3,4.8Z"/></svg>