<svg id="Layer_1" data-name="Layer 1" xmlns="http://www.w3.org/2000/svg" viewBox="0 0 192 192"><defs><style>.cls-1{fill:#fff;}</style></defs><path class="cls-1" d="M132,192H28a4,4,0,0,1-4-4V4a4,4,0,0,1,4-4H164a4,4,0,0,1,4,4V52a4,4,0,0,1-8,0V8H32V184h98.1L160,146.6V68a4,4,0,0,1,8,0v80a3.8,3.8,0,0,1-.9,2.5l-32,40A4,4,0,0,1,132,192Z"/><path class="cls-1" d="M132,192a4,4,0,0,1-4-4V148a4,4,0,0,1,4-4h32a4,4,0,0,1,0,8H136v36A4,4,0,0,1,132,192Z"/><path class="cls-1" d="M140,112H52a4,4,0,0,1,0-8h88a4,4,0,0,1,0,8Z"/><path class="cls-1" d="M140,136H52a4,4,0,0,1,0-8h88a4,4,0,0,1,0,8Z"/><path class="cls-1" d="M108,160H52a4,4,0,0,1,0-8h56a4,4,0,0,1,0,8Z"/><path class="cls-1" d="M96,88a4,4,0,0,1-4-4V72a4,4,0,0,1,8,0V84A4,4,0,0,1,96,88Z"/><path class="cls-1" d="M96,76a3.7,3.7,0,0,1-3-1.4C77,56,85.9,34.4,92.9,25.5a4,4,0,0,1,6.2,0c7,8.9,15.9,30.5-.1,49.1A3.7,3.7,0,0,1,96,76Zm0-40.4c-3.3,6.4-7.1,18,0,29.6C103.1,53.6,99.3,42,96,35.6Z"/><path class="cls-1" d="M96,76h-.7C68.2,71.4,64.2,49.6,64.1,48.7a3.7,3.7,0,0,1,1-3.5A4.2,4.2,0,0,1,68.5,44c.6.1,13.8,1.8,23.3,11.8a4.1,4.1,0,0,1-.2,5.7,4,4,0,0,1-5.6-.2,32.4,32.4,0,0,0-11.5-7.4c3,5.2,9.3,12,22.2,14.2a3.9,3.9,0,0,1,3.2,4.6A4,4,0,0,1,96,76Z"/><path class="cls-1" d="M96,76a4,4,0,0,1-3.9-3.3,3.9,3.9,0,0,1,3.2-4.6c12.9-2.2,19.1-9,22.2-14.2A32.4,32.4,0,0,0,106,61.3a4,4,0,0,1-5.6.2,4.1,4.1,0,0,1-.2-5.7c9.5-10,22.7-11.7,23.3-11.8a4.2,4.2,0,0,1,3.4,1.2,3.7,3.7,0,0,1,1,3.5c-.1.9-4.1,22.7-31.2,27.2Z"/><path class="cls-1" d="M96,76h-.6l-28-4a4,4,0,0,1,1.2-8L96,68l27.4-4a4,4,0,1,1,1.2,8l-28,4Z"/><path class="cls-1" d="M108,80l-1.3-.2L96,76.2,85.3,79.8a4,4,0,0,1-2.6-7.6l12-4a3.9,3.9,0,0,1,2.6,0l12,4a4,4,0,0,1,2.5,5.1A4.1,4.1,0,0,1,108,80Z"/></svg>