<svg id="Layer_1" data-name="Layer 1" xmlns="http://www.w3.org/2000/svg" viewBox="0 0 192 1040.4"><defs><style>.cls-1{fill:#fff;}</style></defs><path class="cls-1" d="M137.6,399.6H33.6a4,4,0,0,1-4-4v-184a4,4,0,0,1,4-4h136a4,4,0,0,1,4,4v48a4,4,0,0,1-8,0v-44H37.6v176h98.1l29.9-37.4V275.6a4,4,0,0,1,8,0v80a3.8,3.8,0,0,1-.9,2.5l-32,40A3.9,3.9,0,0,1,137.6,399.6Z" transform="translate(-5.6 0)"/><path class="cls-1" d="M137.6,399.6a4,4,0,0,1-4-4v-40a4,4,0,0,1,4-4h32a4,4,0,1,1,0,8h-28v36A4,4,0,0,1,137.6,399.6Z" transform="translate(-5.6 0)"/><path class="cls-1" d="M145.6,319.6h-88a4,4,0,0,1,0-8h88a4,4,0,1,1,0,8Z" transform="translate(-5.6 0)"/><path class="cls-1" d="M145.6,343.6h-88a4,4,0,0,1,0-8h88a4,4,0,1,1,0,8Z" transform="translate(-5.6 0)"/><path class="cls-1" d="M113.6,367.6h-56a4,4,0,0,1,0-8h56a4,4,0,1,1,0,8Z" transform="translate(-5.6 0)"/><path class="cls-1" d="M101.6,295.6a4,4,0,0,1-4-4v-12a4,4,0,0,1,8,0v12A4,4,0,0,1,101.6,295.6Z" transform="translate(-5.6 0)"/><path class="cls-1" d="M101.6,283.6a4.1,4.1,0,0,1-3.1-1.4c-15.9-18.6-7-40.2-.1-49a4.2,4.2,0,0,1,3.2-1.6,3.8,3.8,0,0,1,3.1,1.6c7,8.8,15.8,30.4-.1,49A3.7,3.7,0,0,1,101.6,283.6Zm0-40.4c-3.3,6.4-7.1,18,0,29.7C108.7,261.2,104.9,249.6,101.6,243.2Z" transform="translate(-5.6 0)"/><path class="cls-1" d="M101.6,283.6h-.7c-27.2-4.6-31.1-26.4-31.3-27.3a3.9,3.9,0,0,1,1.1-3.4,3.7,3.7,0,0,1,3.4-1.2c.5,0,13.8,1.8,23.3,11.7a4.1,4.1,0,0,1-.2,5.7,4,4,0,0,1-5.6-.2,32.4,32.4,0,0,0-11.5-7.4c3,5.3,9.3,12,22.1,14.2a3.9,3.9,0,0,1,3.3,4.6A4,4,0,0,1,101.6,283.6Z" transform="translate(-5.6 0)"/><path class="cls-1" d="M101.6,283.6a4.2,4.2,0,0,1-4-3.3,4,4,0,0,1,3.3-4.6c12.8-2.2,19.1-8.9,22.1-14.2a32.1,32.1,0,0,0-11.4,7.4,4,4,0,1,1-5.8-5.5c9.4-9.9,22.7-11.7,23.3-11.7a3.7,3.7,0,0,1,3.4,1.2,4.1,4.1,0,0,1,1,3.4c-.1.9-4.1,22.7-31.3,27.3Z" transform="translate(-5.6 0)"/><path class="cls-1" d="M101.6,283.6H101l-28-4a4,4,0,0,1,1.1-7.9l27.5,3.9,27.4-3.9a4,4,0,0,1,1.1,7.9l-28,4Z" transform="translate(-5.6 0)"/><path class="cls-1" d="M113.6,287.6a3,3,0,0,1-1.3-.2l-10.7-3.6-10.8,3.6a3.9,3.9,0,0,1-5-2.5,4,4,0,0,1,2.5-5.1l12-4a5.3,5.3,0,0,1,2.5,0l12,4a4.1,4.1,0,0,1,2.6,5.1A4,4,0,0,1,113.6,287.6Z" transform="translate(-5.6 0)"/><path class="cls-1" d="M177.6,192H25.6a4,4,0,0,1-4-4V60a4,4,0,0,1,8,0V184h144V140a4,4,0,0,1,8,0v48A4,4,0,0,1,177.6,192Z" transform="translate(-5.6 0)"/><path class="cls-1" d="M177.6,128a4,4,0,0,1-4-4V60a4,4,0,0,1,8,0v64A4,4,0,0,1,177.6,128Z" transform="translate(-5.6 0)"/><path class="cls-1" d="M145.6,104h-88a4,4,0,0,1-4-4V76a4,4,0,0,1,8,0V96h80V76a4,4,0,0,1,8,0v24A4,4,0,0,1,145.6,104Z" transform="translate(-5.6 0)"/><path class="cls-1" d="M193.6,64H9.6a4.2,4.2,0,0,1-3.4-1.8,4.2,4.2,0,0,1-.3-3.8l24-56A4.1,4.1,0,0,1,33.6,0h136a4.2,4.2,0,0,1,3.7,2.4l24,56a4,4,0,0,1-.4,3.8A4,4,0,0,1,193.6,64Zm-178-8H187.5L166.9,8H36.2Z" transform="translate(-5.6 0)"/><path class="cls-1" d="M49.6,64a2.2,2.2,0,0,1-1.1-.2,4,4,0,0,1-2.8-4.9l16-56a4,4,0,0,1,7.7,2.2l-16,56A3.9,3.9,0,0,1,49.6,64Z" transform="translate(-5.6 0)"/><path class="cls-1" d="M153.6,64a4,4,0,0,1-3.9-2.9l-16-56A4,4,0,0,1,136.5.2a3.9,3.9,0,0,1,4.9,2.7l16,56a4,4,0,0,1-2.7,4.9A2.3,2.3,0,0,1,153.6,64Z" transform="translate(-5.6 0)"/><path class="cls-1" d="M101.6,64a4,4,0,0,1-4-4V4a4,4,0,0,1,8,0V60A4,4,0,0,1,101.6,64Z" transform="translate(-5.6 0)"/><path class="cls-1" d="M101.6,176a4,4,0,0,1-4-4V160a4,4,0,0,1,8,0v12A4,4,0,0,1,101.6,176Z" transform="translate(-5.6 0)"/><path class="cls-1" d="M101.6,164a4.1,4.1,0,0,1-3.1-1.4c-15.9-18.6-7-40.2-.1-49.1a4.4,4.4,0,0,1,3.2-1.5,4,4,0,0,1,3.1,1.5c7,8.9,15.8,30.5-.1,49.1A3.7,3.7,0,0,1,101.6,164Zm0-40.4c-3.3,6.4-7.1,18,0,29.6C108.7,141.6,104.9,130,101.6,123.6Z" transform="translate(-5.6 0)"/><path class="cls-1" d="M101.6,164h-.7c-27.2-4.5-31.1-26.3-31.3-27.2a4.1,4.1,0,0,1,1.1-3.5,4.2,4.2,0,0,1,3.4-1.2c.5.1,13.8,1.8,23.3,11.8a4.1,4.1,0,0,1-.2,5.7,4,4,0,0,1-5.6-.2,32.4,32.4,0,0,0-11.5-7.4c3,5.2,9.3,12,22.1,14.2a3.9,3.9,0,0,1,3.3,4.6A4,4,0,0,1,101.6,164Z" transform="translate(-5.6 0)"/><path class="cls-1" d="M101.6,164a4.2,4.2,0,0,1-4-3.3,4,4,0,0,1,3.3-4.6c12.8-2.2,19.1-9,22.1-14.2a32.1,32.1,0,0,0-11.4,7.4,4,4,0,1,1-5.8-5.5c9.4-10,22.7-11.7,23.3-11.8a3.9,3.9,0,0,1,4.4,4.7c-.1.9-4.1,22.7-31.3,27.2Z" transform="translate(-5.6 0)"/><path class="cls-1" d="M101.6,164H101l-28-4a4.1,4.1,0,0,1-3.4-4.6,4,4,0,0,1,4.5-3.4l27.5,4,27.4-4a4,4,0,0,1,4.5,3.4,4,4,0,0,1-3.4,4.6l-28,4Z" transform="translate(-5.6 0)"/><path class="cls-1" d="M113.6,168l-1.3-.2-10.7-3.6-10.8,3.6a3.9,3.9,0,0,1-5-2.5,4,4,0,0,1,2.5-5.1l12-4a3.6,3.6,0,0,1,2.5,0l12,4a4,4,0,0,1-1.2,7.8Z" transform="translate(-5.6 0)"/><path class="cls-1" d="M169,831.6H33a3.8,3.8,0,0,1-2.9-1.2,3.8,3.8,0,0,1-1.1-3l8-144a4,4,0,0,1,4-3.8H161a4,4,0,0,1,4,3.8l4,72a4,4,0,0,1-3.8,4.2,4,4,0,0,1-4.2-3.8l-3.8-68.2H44.8l-7.6,136H164.8l-2.9-51.8a4.1,4.1,0,0,1,3.8-4.2,4,4,0,0,1,4.2,3.8l3.1,56a3.8,3.8,0,0,1-1.1,3A3.8,3.8,0,0,1,169,831.6Z" transform="translate(-5.6 0)"/><path class="cls-1" d="M137.4,719.6a4,4,0,0,1-4-4v-28c0-22-14.6-40-32.6-40s-32.5,18-32.5,40v28a4,4,0,0,1-8,0v-28c0-26.4,18.2-48,40.5-48s40.6,21.6,40.6,48v28A4,4,0,0,1,137.4,719.6Z" transform="translate(-5.6 0)"/><path class="cls-1" d="M101,783.6a3.9,3.9,0,0,1-3.5-2.1c-18.9-35.3-.7-66.6.1-67.9a3.9,3.9,0,0,1,6.8,0c.8,1.3,19,32.6.1,67.9A3.9,3.9,0,0,1,101,783.6Zm0-58.2a63.6,63.6,0,0,0,0,44.6C108,751.4,104.3,734.7,101,725.4Z" transform="translate(-5.6 0)"/><path class="cls-1" d="M101,783.6H99.9a57.8,57.8,0,0,1-11-3.1h-.3c-23.6-9.5-27.4-31.1-27.5-32a3.8,3.8,0,0,1,1-3.5,4,4,0,0,1,3.4-1.1c.9.1,22.1,3,33.5,20.8a4,4,0,1,1-6.7,4.4c-5.8-9.2-15.1-13.6-21.3-15.7A37.2,37.2,0,0,0,91.8,773h.1a44.7,44.7,0,0,0,9.7,2.6l.6.2a4,4,0,0,1-1.2,7.8Zm0-8Z" transform="translate(-5.6 0)"/><path class="cls-1" d="M81,799.6a4.1,4.1,0,0,1-4-3.5,4,4,0,0,1,3.5-4.4C95.3,789.9,97,779.6,97,779.1a4,4,0,0,1,4.5-3.4,4,4,0,0,1,3.5,4.4c-.7,5.9-6.5,17.5-23.5,19.5Z" transform="translate(-5.6 0)"/><path class="cls-1" d="M79.4,787.9a40.1,40.1,0,0,1-8.1-.9,39.4,39.4,0,0,1-16.9-8.3,3.9,3.9,0,0,1-1.3-3.8,3.8,3.8,0,0,1,2.5-3,62.3,62.3,0,0,1,16.2-3.7,65.5,65.5,0,0,1,9.9-.2,4,4,0,0,1,3.8,4.2,4,4,0,0,1-4.2,3.8,63,63,0,0,0-8.7.1c-2,.2-4.1.5-6.1.9a31.1,31.1,0,0,0,6.5,2.2A30.4,30.4,0,0,0,90.1,778c0-.1.1-.1.2-.1h.2a45.1,45.1,0,0,0,6.1-2.3,3.9,3.9,0,0,1,1.8-.4,4,4,0,0,1,4,4,4.1,4.1,0,0,1-2.6,3.8,65.9,65.9,0,0,1-6.8,2.5l-.4.2A38.7,38.7,0,0,1,79.4,787.9Zm9.4-9.1Zm0,0Z" transform="translate(-5.6 0)"/><path class="cls-1" d="M122.6,787.9a38.7,38.7,0,0,1-13.2-2.3l-.4-.2a46.9,46.9,0,0,1-6.9-2.6,3.9,3.9,0,0,1-2.5-3.7,4,4,0,0,1,4-4h0a3.9,3.9,0,0,1,1.8.4,45.1,45.1,0,0,0,6.1,2.3h.2c.1,0,.2,0,.2.1a30.9,30.9,0,0,0,23.6-1,59.7,59.7,0,0,0-6.1-.9,63,63,0,0,0-8.7-.1,4,4,0,0,1-4.2-3.8,4,4,0,0,1,3.8-4.2,65.5,65.5,0,0,1,9.9.2,62.3,62.3,0,0,1,16.2,3.7,3.8,3.8,0,0,1,2.5,3,3.9,3.9,0,0,1-1.3,3.8,39.2,39.2,0,0,1-17,8.3A38.5,38.5,0,0,1,122.6,787.9Zm-9.4-9.1Zm0,0Z" transform="translate(-5.6 0)"/><path class="cls-1" d="M101,807.6a4,4,0,0,1-4-4v-24a4,4,0,0,1,8,0v24A4,4,0,0,1,101,807.6Z" transform="translate(-5.6 0)"/><path class="cls-1" d="M101,783.6a4,4,0,0,1-1.2-7.8l.6-.2a44.7,44.7,0,0,0,9.7-2.6h.1A37.2,37.2,0,0,0,131,753.2c-6.2,2.1-15.5,6.5-21.3,15.7a4,4,0,1,1-6.7-4.4c11.4-17.8,32.6-20.7,33.5-20.8a4,4,0,0,1,3.4,1.1,3.8,3.8,0,0,1,1,3.5c-.1.9-3.9,22.5-27.5,32h-.3a57.8,57.8,0,0,1-11,3.1Zm0-8Z" transform="translate(-5.6 0)"/><path class="cls-1" d="M121,799.6h-.5c-10.9-1.3-16.7-6.4-19.6-10.4a22.4,22.4,0,0,1-3.9-9.1,4,4,0,0,1,3.5-4.4,4,4,0,0,1,4.5,3.5c0,.4,1.7,10.7,16.5,12.5a4,4,0,0,1,3.5,4.4A4.1,4.1,0,0,1,121,799.6Z" transform="translate(-5.6 0)"/><path class="cls-1" d="M125.6,567.1a72,72,0,1,1,72-72A72.1,72.1,0,0,1,125.6,567.1Zm0-136a64,64,0,1,0,64,64A64.1,64.1,0,0,0,125.6,431.1Z" transform="translate(-5.6 0)"/><path class="cls-1" d="M57.6,567.1a3.8,3.8,0,0,1-2.8-1.2,4,4,0,0,1,0-5.7l20-20a4,4,0,0,1,5.6,0,4,4,0,0,1,0,5.7l-20,20A3.9,3.9,0,0,1,57.6,567.1Z" transform="translate(-5.6 0)"/><path class="cls-1" d="M25.6,615.1a3.8,3.8,0,0,1-2.8-1.2l-16-16a4,4,0,0,1,0-5.7l40-40a4,4,0,0,1,5.6,0l16,16a4,4,0,0,1,0,5.7l-16,16a3.9,3.9,0,0,1-5.6,0,4,4,0,0,1,0-5.7l13.1-13.1L49.6,560.7,15.2,595.1l10.4,10.3,9.2-9.2a4,4,0,0,1,5.6,0,4,4,0,0,1,0,5.7l-12,12A3.9,3.9,0,0,1,25.6,615.1Z" transform="translate(-5.6 0)"/><path class="cls-1" d="M125.6,539.1h-.7c-27.2-4.5-31.1-26.3-31.3-27.3a4,4,0,0,1,4.5-4.6c.5.1,13.8,1.8,23.3,11.8a4,4,0,0,1-.2,5.6,3.9,3.9,0,0,1-5.6-.1,32.4,32.4,0,0,0-11.5-7.4c3,5.2,9.3,12,22.1,14.1a4,4,0,0,1-.6,8Z" transform="translate(-5.6 0)"/><path class="cls-1" d="M125.6,551.1a4,4,0,0,1-4-4v-12a4,4,0,0,1,8,0v12A4,4,0,0,1,125.6,551.1Z" transform="translate(-5.6 0)"/><path class="cls-1" d="M125.6,539.1a4.1,4.1,0,0,1-3.1-1.4c-15.9-18.7-7-40.3-.1-49.1a4.1,4.1,0,0,1,3.2-1.5,3.7,3.7,0,0,1,3.1,1.5c7,8.8,15.8,30.4-.1,49.1A3.7,3.7,0,0,1,125.6,539.1Zm0-40.5c-3.3,6.5-7.1,18.1,0,29.7C132.7,516.6,128.9,505,125.6,498.6Z" transform="translate(-5.6 0)"/><path class="cls-1" d="M125.6,539.1a4.1,4.1,0,0,1-4-3.4,4,4,0,0,1,3.3-4.6C137.7,529,144,522.2,147,517a32.1,32.1,0,0,0-11.4,7.4,4,4,0,0,1-5.8-5.5c9.4-10,22.7-11.7,23.3-11.8a4,4,0,0,1,3.4,1.2,4.2,4.2,0,0,1,1,3.4c-.1,1-4.1,22.8-31.3,27.3Z" transform="translate(-5.6 0)"/><path class="cls-1" d="M125.6,539.1H125l-28-4a4,4,0,0,1-3.4-4.5,4,4,0,0,1,4.5-3.4l27.5,3.9,27.4-3.9a4,4,0,0,1,4.5,3.4,3.9,3.9,0,0,1-3.4,4.5l-28,4Z" transform="translate(-5.6 0)"/><path class="cls-1" d="M137.6,543.1l-1.3-.2-10.7-3.6-10.8,3.6a4,4,0,0,1-5-2.6,3.9,3.9,0,0,1,2.5-5l12-4a3.6,3.6,0,0,1,2.5,0l12,4a4,4,0,0,1,2.6,5A4.1,4.1,0,0,1,137.6,543.1Z" transform="translate(-5.6 0)"/><path class="cls-1" d="M96,1020.4a4,4,0,0,1-3-6.6,29.3,29.3,0,0,0,6.2-11.8c2.2-8.7-.7-16.9-3.2-21.9-2.5,5-5.4,13.2-3.2,21.9a4,4,0,0,1-7.8,1.9c-4.5-18,7.3-33.4,7.9-34a4,4,0,0,1,6.2,0c.6.6,12.4,16,7.9,34a36.4,36.4,0,0,1-8,15.1A4.1,4.1,0,0,1,96,1020.4Z" transform="translate(-5.6 0)"/><path class="cls-1" d="M96,1020.4h-.7C68.2,1015.8,64.2,994,64.1,993a3.6,3.6,0,0,1,1-3.4,3.9,3.9,0,0,1,3.4-1.2c.6.1,13.8,1.8,23.3,11.8a4,4,0,0,1,1,1.8,29.3,29.3,0,0,0,6.2,11.8,3.9,3.9,0,0,1,.5,4.5A4,4,0,0,1,96,1020.4ZM74.5,998.3a28.2,28.2,0,0,0,12.4,11.2,40.4,40.4,0,0,1-1.6-4.5A31.9,31.9,0,0,0,74.5,998.3Z" transform="translate(-5.6 0)"/><path class="cls-1" d="M96,1032.4a4,4,0,0,1-4-4v-12a4,4,0,0,1,8,0v12A4,4,0,0,1,96,1032.4Z" transform="translate(-5.6 0)"/><path class="cls-1" d="M96,1020.4a4,4,0,0,1-.7-8c12.9-2.1,19.1-8.9,22.2-14.1a32.4,32.4,0,0,0-11.5,7.4,3.9,3.9,0,0,1-5.6.1,4,4,0,0,1-.2-5.6c9.5-10,22.7-11.7,23.3-11.8a3.9,3.9,0,0,1,3.4,1.2,3.6,3.6,0,0,1,1,3.4c-.1,1-4.1,22.8-31.2,27.3Z" transform="translate(-5.6 0)"/><path class="cls-1" d="M96,1020.4h-.6l-28-4a4,4,0,0,1-3.4-4.5,4.1,4.1,0,0,1,4.6-3.4l27.4,3.9,27.4-3.9a4.1,4.1,0,0,1,4.6,3.4,4,4,0,0,1-3.4,4.5l-28,4Z" transform="translate(-5.6 0)"/><path class="cls-1" d="M108,1024.4l-1.3-.2L96,1020.6l-10.7,3.6a4.1,4.1,0,0,1-5.1-2.6,3.9,3.9,0,0,1,2.5-5l12-4a3.9,3.9,0,0,1,2.6,0l12,4a3.9,3.9,0,0,1,2.5,5A4.1,4.1,0,0,1,108,1024.4Z" transform="translate(-5.6 0)"/><path class="cls-1" d="M155,968.4a4,4,0,0,1-3.2-1.7c-8.8-12-22.4-20.2-36.3-21.9h-.1a35.2,35.2,0,0,0-5.8-.4h-.3a4,4,0,0,1,0-8h.3a49.3,49.3,0,0,1,6.9.4c16.1,2.1,31.7,11.5,41.8,25.2a4,4,0,0,1-.9,5.6A4.1,4.1,0,0,1,155,968.4Z" transform="translate(-5.6 0)"/><path class="cls-1" d="M28,1040.4a4,4,0,0,1-4-4v-48c0-21.3,22-47.9,51.5-51.6a49.3,49.3,0,0,1,6.9-.4h.3a4,4,0,1,1,0,8h-.3a35.2,35.2,0,0,0-5.8.4h-.1c-25,3.1-44.5,26-44.5,43.6v48A4,4,0,0,1,28,1040.4Z" transform="translate(-5.6 0)"/><path class="cls-1" d="M140,1040.4a4,4,0,0,1-4-4v-24a4,4,0,0,1,8,0v24A4,4,0,0,1,140,1040.4Z" transform="translate(-5.6 0)"/><path class="cls-1" d="M52,1040.4a4,4,0,0,1-4-4v-24a4,4,0,0,1,8,0v24A4,4,0,0,1,52,1040.4Z" transform="translate(-5.6 0)"/><path class="cls-1" d="M52,1024.4H28a4,4,0,1,1,0-8H52a4,4,0,0,1,0,8Z" transform="translate(-5.6 0)"/><path class="cls-1" d="M164,1024.4H140a4,4,0,1,1,0-8h24a4,4,0,0,1,0,8Z" transform="translate(-5.6 0)"/><path class="cls-1" d="M96,960.4c-13.1,0-23.6-8.6-24-19.5a4.1,4.1,0,0,1,3.9-4.1,4,4,0,0,1,4.1,3.9c.2,6.4,7.4,11.7,16,11.7s15.8-5.3,16-11.7a4,4,0,0,1,4.1-3.9,4.1,4.1,0,0,1,3.9,4.1C119.6,951.8,109.1,960.4,96,960.4Z" transform="translate(-5.6 0)"/><path class="cls-1" d="M164,1040.4a4,4,0,0,1-4-4v-48a28.6,28.6,0,0,0-.9-7,4,4,0,1,1,7.7-2.1,36.1,36.1,0,0,1,1.2,9.1v48A4,4,0,0,1,164,1040.4Z" transform="translate(-5.6 0)"/><path class="cls-1" d="M100,928.4H92a28.1,28.1,0,0,1-28-28v-24a28,28,0,0,1,28-28h8a28,28,0,0,1,28,28v24A28.1,28.1,0,0,1,100,928.4Zm-8-72a20,20,0,0,0-20,20v24a20.1,20.1,0,0,0,20,20h8a20.1,20.1,0,0,0,20-20v-24a20,20,0,0,0-20-20Z" transform="translate(-5.6 0)"/><path class="cls-1" d="M82.7,944.4h-.9a4.1,4.1,0,0,1-3-4.9A42.4,42.4,0,0,0,80,932a83,83,0,0,0,.1-8.9A4.1,4.1,0,0,1,84,919a4,4,0,0,1,4.1,3.9c.1,2.9.1,7.4-.1,9.8a57.2,57.2,0,0,1-1.4,8.6A4.1,4.1,0,0,1,82.7,944.4Z" transform="translate(-5.6 0)"/><path class="cls-1" d="M109.3,944.4a4.1,4.1,0,0,1-3.9-3.1,57.2,57.2,0,0,1-1.4-8.6c-.2-2.5-.2-6.9-.1-9.7a4,4,0,0,1,8,0h0a83.9,83.9,0,0,0,.1,8.9,42.8,42.8,0,0,0,1.2,7.3,4.1,4.1,0,0,1-3,4.9Z" transform="translate(-5.6 0)"/></svg>